<?xml version="1.0" encoding="UTF-8"?>
<svg version="1.1" xmlns="http://www.w3.org/2000/svg" width="500" height="500">
<path d="M0 0 C3.999549 1.38759863 7.16360031 2.92202533 10.0625 6.0625 C11.45352701 8.9865955 12.34151459 11.91076378 13.0625 15.0625 C13.3925 15.0625 13.7225 15.0625 14.0625 15.0625 C15.0525 22.9825 15.0525 22.9825 16.0625 31.0625 C18.3725 29.7425 20.6825 28.4225 23.0625 27.0625 C21.99141306 24.02775367 20.89436063 21.8399626 18.9375 19.25 C16.40739907 14.94882842 16.35710321 13.00027752 17.0625 8.0625 C19.00056117 5.06163109 20.38117088 3.45749 23.94140625 2.62109375 C36.97760523 1.87685403 51.10682843 9.2077855 61.0625 17.0625 C61.619375 15.1753125 61.619375 15.1753125 62.1875 13.25 C63.43617232 9.88272725 63.7717051 9.23573951 67 7.3125 C68.010625 6.9 69.02125 6.4875 70.0625 6.0625 C70.701875 5.32 71.34125 4.5775 72 3.8125 C74.0625 2.0625 74.0625 2.0625 77.6875 2.1875 C81.0625 3.0625 81.0625 3.0625 83.0625 5.0625 C83.4765625 7.2265625 83.4765625 7.2265625 83.6875 9.6875 C83.79964844 10.91339844 83.79964844 10.91339844 83.9140625 12.1640625 C83.96304688 12.79054687 84.01203125 13.41703125 84.0625 14.0625 C84.3925 14.0625 84.7225 14.0625 85.0625 14.0625 C85.12308594 14.77277344 85.18367187 15.48304688 85.24609375 16.21484375 C85.32988281 17.13394531 85.41367188 18.05304688 85.5 19 C85.58121094 19.91652344 85.66242188 20.83304688 85.74609375 21.77734375 C85.82294976 24.02409732 85.82294976 24.02409732 87.0625 25.0625 C95.7638173 21.8491902 103.74426691 17.61731368 111.84765625 13.1328125 C113.30751953 12.34777344 113.30751953 12.34777344 114.796875 11.546875 C116.09963379 10.83096191 116.09963379 10.83096191 117.42871094 10.10058594 C120.52695476 8.87943904 122.75827277 8.74667972 126.0625 9.0625 C128.9375 10.9375 128.9375 10.9375 131.0625 13.0625 C131.0625 13.7225 131.0625 14.3825 131.0625 15.0625 C132.39087891 14.57330078 132.39087891 14.57330078 133.74609375 14.07421875 C140.81335217 11.58119002 147.73512532 9.5410952 155.125 8.25 C155.82616943 8.1264917 156.52733887 8.0029834 157.24975586 7.87573242 C167.37745045 6.21997523 167.37745045 6.21997523 171.0625 8.0625 C173.73830435 8.10565813 176.38913282 8.1078968 179.0625 8.0625 C180.3825 8.0625 181.7025 8.0625 183.0625 8.0625 C183.76938965 7.41434326 184.4762793 6.76618652 185.20458984 6.09838867 C189.32137339 3.16571671 192.84966633 3.4778322 197.7890625 3.48828125 C199.20425674 3.46703438 199.20425674 3.46703438 200.64804077 3.44535828 C203.66130901 3.40352158 206.67398278 3.38825311 209.6875 3.375 C212.67931219 3.34574436 215.67098098 3.31090935 218.66268921 3.27250671 C220.52039107 3.25040224 222.37817941 3.234355 224.23599243 3.22566223 C229.75870879 3.18069484 235.19131604 2.84362158 240.68632507 2.28460693 C243.54868125 2.01705544 246.37628736 1.96267906 249.25 2 C250.17167969 2.00902344 251.09335937 2.01804688 252.04296875 2.02734375 C253.04263672 2.04474609 253.04263672 2.04474609 254.0625 2.0625 C254.7225 4.3725 255.3825 6.6825 256.0625 9.0625 C256.578125 8.794375 257.09375 8.52625 257.625 8.25 C258.8315625 7.6621875 258.8315625 7.6621875 260.0625 7.0625 C261.135 6.52625 262.2075 5.99 263.3125 5.4375 C267.41704606 3.93249978 270.79523493 2.97125283 275.0625 4.0625 C282.65449464 8.1959193 285.61704441 15.12403243 288.0625 23.0625 C292.43699834 38.60255257 294.09845509 58.83034322 286.73828125 73.74609375 C283.50575691 78.91304211 279.58582875 83.30083563 274.0625 86.0625 C271.65000308 86.23853147 269.23099105 86.32994968 266.8125 86.375 C265.50796875 86.41238281 264.2034375 86.44976562 262.859375 86.48828125 C257.57045379 85.89518206 254.63116143 83.63116143 250.9375 79.9375 C242.1649595 66.48627123 241.86430502 48.20983774 244.95703125 32.85546875 C245.80409491 29.17602263 246.93510306 25.6913089 248.0625 22.0625 C241.7925 23.0525 235.5225 24.0425 229.0625 25.0625 C229.07297363 26.60631348 229.08344727 28.15012695 229.09423828 29.74072266 C229.13048138 35.47702713 229.15341631 41.2133215 229.17236328 46.94970703 C229.182411 49.43084415 229.19605144 51.91196945 229.21337891 54.39306641 C229.23768086 57.96259479 229.24899558 61.53196638 229.2578125 65.1015625 C229.26813507 66.20803131 229.27845764 67.31450012 229.28909302 68.45449829 C229.29053203 78.36747636 229.29053203 78.36747636 227.0625 83.0625 C224.17773736 85.53515369 222.27330372 86.03291351 218.5 86.5625 C215.0625 86.0625 215.0625 86.0625 212.6875 83.8125 C210.09347578 79.42261286 209.93484385 75.88045854 209.9296875 70.8125 C209.92775391 69.57258301 209.92582031 68.33266602 209.92382812 67.05517578 C209.92833984 65.73759277 209.93285156 64.42000977 209.9375 63.0625 C209.93838623 62.39442322 209.93927246 61.72634644 209.94018555 61.0380249 C209.95788613 49.69092976 210.31649068 38.38585569 211.0625 27.0625 C209.45181641 27.00642578 209.45181641 27.00642578 207.80859375 26.94921875 C206.3723638 26.88350888 204.93616738 26.81706332 203.5 26.75 C202.79552734 26.72744141 202.09105469 26.70488281 201.36523438 26.68164062 C195.07811062 26.3629385 190.01174362 25.21166604 185.625 20.375 C185.109375 19.611875 184.59375 18.84875 184.0625 18.0625 C182.78669067 18.73937866 182.78669067 18.73937866 181.48510742 19.42993164 C178.11266974 21.03856926 174.88505627 22.14162718 171.30078125 23.18359375 C170.669478 23.36962662 170.03817474 23.55565948 169.38774109 23.74732971 C167.38501543 24.33690426 165.38025154 24.91908001 163.375 25.5 C154.49745811 28.08253789 145.70396024 30.7565852 137.0625 34.0625 C137.3925 35.3825 137.7225 36.7025 138.0625 38.0625 C138.63057373 37.8358667 139.19864746 37.6092334 139.78393555 37.37573242 C172.27807299 24.49040935 172.27807299 24.49040935 181.0625 28.0625 C183.5206466 30.07885988 184.94746405 32.0871146 186.0625 35.0625 C186.0625 38.875 186.0625 38.875 185.0625 42.0625 C181.3495426 44.53780493 177.74014887 45.01541354 173.4375 45.8125 C166.67464723 47.15453712 160.14033663 48.79866021 153.625 51.0625 C152.9222998 51.29936523 152.21959961 51.53623047 151.49560547 51.78027344 C147.44841612 53.24277824 144.92256393 54.87423202 142.0625 58.0625 C139.8125 58.8125 139.8125 58.8125 138.0625 59.0625 C138.3925 60.0525 138.7225 61.0425 139.0625 62.0625 C145.79459161 61.51022091 151.61998464 59.1352831 157.875 56.6875 C180.22406401 48.0109692 180.22406401 48.0109692 187.0625 50.0625 C190.79778457 52.7882482 192.05292822 55.60355798 193.0625 60.0625 C193.82774256 67.78205219 193.82774256 67.78205219 191.84008789 71.10791016 C189.67892245 73.48427199 188.37416555 73.8309556 185.2578125 74.484375 C184.29166016 74.7011792 183.32550781 74.9179834 182.33007812 75.14135742 C181.29302734 75.36283447 180.25597656 75.58431152 179.1875 75.8125 C168.12480335 78.35983147 157.79817492 81.91306516 147.2890625 86.16235352 C141.35052748 88.56316258 136.539285 90.46729906 130.0625 90.0625 C129.876875 89.27875 129.69125 88.495 129.5 87.6875 C128.25103418 84.68384077 128.25103418 84.68384077 124.625 84 C122.8615625 83.5359375 122.8615625 83.5359375 121.0625 83.0625 C118.80693524 80.88749112 118.0002306 78.90993996 116.8125 76 C112.60780679 65.88717378 105.6029858 57.84544516 98.0625 50.0625 C97.19496094 49.14855469 96.32742187 48.23460937 95.43359375 47.29296875 C92.88042882 44.89122711 91.50081092 44.35721236 88.0625 44.0625 C87.72000911 53.8234904 88.91082122 63.56549711 91.1875 73.0625 C92.07056976 76.79965124 92.45589791 80.20720046 92.0625 84.0625 C87.60672653 87.03301564 83.28807394 86.68987491 78.0625 86.0625 C74.43298539 83.98849165 72.58836743 81.94652619 71.0625 78.0625 C70.134375 79.2071875 70.134375 79.2071875 69.1875 80.375 C64.6481226 84.90151797 58.39946431 85.79432377 52.25 86.5 C46.32934566 86.29247191 40.61601269 83.95882141 35.0625 82.0625 C34.76988281 82.86945313 34.47726563 83.67640625 34.17578125 84.5078125 C33.0625 87.0625 33.0625 87.0625 31.25 87.9375 C29.0625 88.0625 29.0625 88.0625 26.4375 87.5 C25.65375 87.355625 24.87 87.21125 24.0625 87.0625 C23.4025 87.7225 22.7425 88.3825 22.0625 89.0625 C19.75 89.5625 19.75 89.5625 17.0625 89.0625 C8.10946972 80.76456949 6.54922956 67.46441956 4.0625 56.0625 C0.5975 56.5575 0.5975 56.5575 -2.9375 57.0625 C-5.19121432 63.2089936 -6.56449365 69.07948269 -7.5078125 75.55859375 C-7.9375 78.0625 -7.9375 78.0625 -8.9375 80.0625 C-9.9275 80.0625 -10.9175 80.0625 -11.9375 80.0625 C-12.02 80.825625 -12.1025 81.58875 -12.1875 82.375 C-12.9375 85.0625 -12.9375 85.0625 -14.625 86.875 C-17.57438445 88.38954877 -19.6627119 88.34726418 -22.9375 88.0625 C-23.5975 87.7325 -24.2575 87.4025 -24.9375 87.0625 C-41.14256227 84.93853553 -58.74191581 84.81728281 -74.84887695 87.61450195 C-79.50543496 88.35024641 -79.50543496 88.35024641 -81.83203125 86.80078125 C-83.47265513 84.22100165 -83.81104277 82.09747346 -83.9375 79.0625 C-82.625 77.1875 -82.625 77.1875 -80.9375 76.0625 C-80.2775 76.0625 -79.6175 76.0625 -78.9375 76.0625 C-79.0096875 75.31226563 -79.081875 74.56203125 -79.15625 73.7890625 C-79.75468868 67.18961373 -80.06942217 60.68792432 -79.9375 54.0625 C-80.57945313 53.79308594 -81.22140625 53.52367187 -81.8828125 53.24609375 C-83.9375 52.0625 -83.9375 52.0625 -84.8125 49.125 C-84.9375 46.0625 -84.9375 46.0625 -82.9375 43.0625 C-82.31857386 36.3271273 -82.19877214 29.32244939 -84.9375 23.0625 C-85.80375 22.216875 -86.67 21.37125 -87.5625 20.5 C-89.9375 18.0625 -89.9375 18.0625 -90.5 15 C-89.81130287 11.40347053 -88.84317935 10.24175951 -85.9375 8.0625 C-75.37512612 4.80576805 -65.49243424 8.45393323 -55.9375 13.0625 C-51.7114453 15.46187218 -47.8143568 18.13688339 -43.9375 21.0625 C-43.06480469 21.71347656 -42.19210938 22.36445313 -41.29296875 23.03515625 C-36.02604061 27.10468752 -31.46016401 31.49191638 -27.04296875 36.47265625 C-25.00649242 38.38129634 -25.00649242 38.38129634 -22.17578125 37.80859375 C-21.43714844 37.56238281 -20.69851562 37.31617188 -19.9375 37.0625 C-19.72996094 36.0209375 -19.52242188 34.979375 -19.30859375 33.90625 C-17.66571445 26.09660756 -15.67380238 18.61321491 -12.5625 11.25 C-12.29493896 10.58742187 -12.02737793 9.92484375 -11.75170898 9.2421875 C-9.39911365 3.94319108 -6.05301501 0.12878755 0 0 Z M159.0625 11.0625 C161.7025 10.7325 164.3425 10.4025 167.0625 10.0625 C163.65995511 8.8473054 162.12998874 9.20009612 159.0625 11.0625 Z M151.0625 13.0625 C153.7025 12.7325 156.3425 12.4025 159.0625 12.0625 C155.65995511 10.8473054 154.12998874 11.20009612 151.0625 13.0625 Z M142.0625 15.0625 C146.5175 14.5675 146.5175 14.5675 151.0625 14.0625 C151.0625 13.7325 151.0625 13.4025 151.0625 13.0625 C147.09208963 12.84192165 145.82937864 13.17906068 142.0625 15.0625 Z M269.0625 18.0625 C268.60875 19.196875 268.155 20.33125 267.6875 21.5 C267.43226563 22.13808594 267.17703125 22.77617187 266.9140625 23.43359375 C263.71372824 33.31352473 263.93134073 42.68458512 264.25439453 52.93505859 C264.31494207 54.99319824 264.350345 57.05062779 264.3828125 59.109375 C264.41648926 60.32463867 264.45016602 61.53990234 264.48486328 62.79199219 C263.98464004 66.66539716 262.7293946 68.28051131 260.0625 71.0625 C260.62612302 73.11086882 260.62612302 73.11086882 262.0625 75.0625 C264.9221006 76.23360449 264.9221006 76.23360449 268.0625 76.0625 C273.37708907 72.72190115 274.37728294 65.92795315 275.75 60.1875 C276.59488074 51.73869263 275.89141467 43.7010265 274.75 35.3125 C274.63237305 34.41329834 274.51474609 33.51409668 274.39355469 32.58764648 C273.62393661 27.27757702 272.4164607 22.8891085 270.0625 18.0625 C269.7325 18.0625 269.4025 18.0625 269.0625 18.0625 Z M-67.9375 25.0625 C-69.06508089 28.44524266 -68.75500262 29.83028223 -68 33.25 C-67.70802734 34.60158203 -67.70802734 34.60158203 -67.41015625 35.98046875 C-67.25417969 36.66753906 -67.09820312 37.35460937 -66.9375 38.0625 C-57.88379115 38.26970114 -57.88379115 38.26970114 -48.9375 37.0625 C-49.29212229 34.28562716 -49.69136568 33.27118995 -51.86328125 31.4296875 C-52.65089844 30.93726563 -53.43851563 30.44484375 -54.25 29.9375 C-55.41982422 29.19113281 -55.41982422 29.19113281 -56.61328125 28.4296875 C-60.67218323 26.0420981 -63.14840138 24.79643897 -67.9375 25.0625 Z M46.0625 26.0625 C46.64307319 29.74066557 48.10536471 31.51650112 50.66015625 34.171875 C51.37880859 34.92597656 52.09746094 35.68007812 52.83789062 36.45703125 C53.59263672 37.23433594 54.34738281 38.01164062 55.125 38.8125 C55.88361328 39.60527344 56.64222656 40.39804688 57.42382812 41.21484375 C59.2969479 43.17042792 61.17660532 45.11924573 63.0625 47.0625 C64.0525 46.7325 65.0425 46.4025 66.0625 46.0625 C64.44161982 38.01399152 60.61713059 33.82747036 54.0625 29.0625 C50.28054747 26.73860671 50.28054747 26.73860671 46.0625 26.0625 Z M-1.9375 29.0625 C-3.43571059 32.43347383 -3.9375 34.26692119 -3.9375 38.0625 C-2.6175 38.0625 -1.2975 38.0625 0.0625 38.0625 C1.31791557 34.29625329 0.43311958 32.69061066 -0.9375 29.0625 C-1.2675 29.0625 -1.5975 29.0625 -1.9375 29.0625 Z M111.0625 32.0625 C111.56121064 36.51923159 113.08254362 38.63937178 116.125 41.875 C117.22521484 43.06029297 117.22521484 43.06029297 118.34765625 44.26953125 C118.91355469 44.86121094 119.47945312 45.45289063 120.0625 46.0625 C121.80026501 42.58696998 120.79127918 38.78114247 120.0625 35.0625 C118.6399139 31.62654793 118.6399139 31.62654793 117.0625 29.0625 C114.90731828 29.0625 112.8463343 30.96475582 111.0625 32.0625 Z M30.0625 33.0625 C32.01149216 52.48219728 32.01149216 52.48219728 41.8125 69 C46.69470758 71.30548691 51.95346051 71.59657628 57.125 70.125 C58.094375 69.774375 59.06375 69.42375 60.0625 69.0625 C60.61765755 65.96947939 60.50784278 63.8151293 58.890625 61.08203125 C53.75240552 54.36564436 47.8551088 48.21394297 42.0625 42.0625 C41.37414062 41.32 40.68578125 40.5775 39.9765625 39.8125 C39.38617188 39.19375 38.79578125 38.575 38.1875 37.9375 C37.69507813 37.41929687 37.20265625 36.90109375 36.6953125 36.3671875 C34.64156283 34.72615307 32.52623902 33.93942406 30.0625 33.0625 Z M-40.9375 52.0625 C-39.70086708 55.77239875 -38.16326017 56.77646484 -35.125 59.1875 C-33.81595703 60.24324219 -33.81595703 60.24324219 -32.48046875 61.3203125 C-30.16987178 62.90330213 -28.66684148 63.64260131 -25.9375 64.0625 C-25.2775 62.0825 -24.6175 60.1025 -23.9375 58.0625 C-24.9275 57.7325 -25.9175 57.4025 -26.9375 57.0625 C-26.9375 56.4025 -26.9375 55.7425 -26.9375 55.0625 C-29.13185701 52.94504802 -30.46139051 52.11660335 -33.515625 51.76953125 C-34.83820313 51.82173828 -34.83820313 51.82173828 -36.1875 51.875 C-37.52554688 51.91560547 -37.52554688 51.91560547 -38.890625 51.95703125 C-39.90382812 52.00923828 -39.90382812 52.00923828 -40.9375 52.0625 Z M-63.9375 57.0625 C-63.99275226 58.41618041 -64.03084369 59.77056235 -64.0625 61.125 C-64.08570312 61.87910156 -64.10890625 62.63320312 -64.1328125 63.41015625 C-63.8832563 66.79912948 -62.94356716 69.82644933 -61.9375 73.0625 C-58.31379339 73.31663123 -54.68881263 73.53655533 -51.0625 73.75 C-50.02996094 73.82283203 -48.99742188 73.89566406 -47.93359375 73.97070312 C-46.94746094 74.02548828 -45.96132812 74.08027344 -44.9453125 74.13671875 C-44.03410645 74.19432373 -43.12290039 74.25192871 -42.18408203 74.3112793 C-41.44270996 74.22918213 -40.70133789 74.14708496 -39.9375 74.0625 C-39.2775 73.0725 -38.6175 72.0825 -37.9375 71.0625 C-49.67447432 61.15077914 -49.67447432 61.15077914 -63.9375 57.0625 Z " fill="#E3E2DD" transform="translate(146.9375,169.9375)"/>
<path d="M0 0 C0.33 0 0.66 0 1 0 C1 12.21 1 24.42 1 37 C0.34 37 -0.32 37 -1 37 C-3.20882712 30.87475248 -3.12478914 25.51671763 -2.75 19.0625 C-2.71003906 18.11181641 -2.67007812 17.16113281 -2.62890625 16.18164062 C-2.34085802 10.53355973 -1.56573492 5.43515359 0 0 Z " fill="#F0F1ED" transform="translate(411,197)"/>
<path d="M0 0 C0.33 0 0.66 0 1 0 C1.04950925 4.62644904 1.08577116 9.25274318 1.10986328 13.87939453 C1.11990887 15.45266405 1.13354781 17.02591496 1.15087891 18.59912109 C1.17519096 20.86300252 1.18649747 23.12663666 1.1953125 25.390625 C1.20563507 26.09181458 1.21595764 26.79300415 1.22659302 27.51544189 C1.22744406 31.23584939 0.93206314 33.80837502 -1 37 C-1.37668344 38.65740715 -1.72057545 40.32345271 -2 42 C-2.66 41.67 -3.32 41.34 -4 41 C-4 29 -4 29 -2 27 C-1.34 26.67 -0.68 26.34 0 26 C0 17.42 0 8.84 0 0 Z " fill="#DBDAD6" transform="translate(374,208)"/>
<path d="M0 0 C-2.77100148 2.77100148 -5.9287884 3.21939462 -9.625 4.125 C-10.31207031 4.30675781 -10.99914062 4.48851562 -11.70703125 4.67578125 C-16.5862255 5.89329126 -20.97394907 6.16941745 -26 6 C-26 5.34 -26 4.68 -26 4 C-8.41230512 -0.20517817 -8.41230512 -0.20517817 0 0 Z " fill="#F0F1EC" transform="translate(316,177)"/>
<path d="M0 0 C0.66 0.66 1.32 1.32 2 2 C1.79296875 4.79296875 1.79296875 4.79296875 1.1875 8.1875 C0.98511719 9.35152344 0.78273437 10.51554688 0.57421875 11.71484375 C0.38472656 12.79894531 0.19523438 13.88304687 0 15 C-0.17435238 16.41574131 -0.34312614 17.83221553 -0.5 19.25 C-0.665 20.1575 -0.83 21.065 -1 22 C-1.66 22.33 -2.32 22.66 -3 23 C-3.24647499 15.60575038 -3.3755817 6.75116339 0 0 Z " fill="#EDEEE7" transform="translate(140,226)"/>
<path d="M0 0 C1.46993151 4.40979452 1.11775873 8.50630783 0 13 C-2.375 15.1875 -2.375 15.1875 -5 16 C-5.99 15.67 -6.98 15.34 -8 15 C-7.34 15 -6.68 15 -6 15 C-6 14.34 -6 13.68 -6 13 C-5.34 13 -4.68 13 -4 13 C-3.896875 11.783125 -3.79375 10.56625 -3.6875 9.3125 C-3.23780688 5.58930552 -2.21617222 3.08337005 0 0 Z " fill="#EBEBE6" transform="translate(375,239)"/>
<path d="M0 0 C0.86625 0.37125 0.86625 0.37125 1.75 0.75 C0.43 1.08 -0.89 1.41 -2.25 1.75 C-1.59 3.73 -0.93 5.71 -0.25 7.75 C-2.725 9.235 -2.725 9.235 -5.25 10.75 C-6.25 9.75 -6.25 9.75 -6.5625 6.9375 C-6.25 3.75 -6.25 3.75 -4.5 1.3125 C-2.25 -0.25 -2.25 -0.25 0 0 Z " fill="#E8E7E3" transform="translate(63.25,178.25)"/>
<path d="M0 0 C2.62107562 2.62107562 3.2578457 4.35669708 4 8 C3.28319367 10.86722534 2.21771638 13.28355576 1 16 C-0.32 15.67 -1.64 15.34 -3 15 C-2.505 14.195625 -2.01 13.39125 -1.5 12.5625 C0.34527349 8.17997546 0.28061086 4.67684769 0 0 Z " fill="#E0E1DA" transform="translate(267,207)"/>
<path d="M0 0 C0.99 0.33 1.98 0.66 3 1 C3 1.66 3 2.32 3 3 C3.54269531 2.77183594 4.08539063 2.54367188 4.64453125 2.30859375 C5.35996094 2.02113281 6.07539063 1.73367187 6.8125 1.4375 C7.52019531 1.14746094 8.22789062 0.85742188 8.95703125 0.55859375 C11 0 11 0 14 1 C13.01 2.485 13.01 2.485 12 4 C10.0546875 4.29296875 10.0546875 4.29296875 7.875 4.1875 C6.59625 4.125625 5.3175 4.06375 4 4 C4 4.66 4 5.32 4 6 C2.68 5.67 1.36 5.34 0 5 C0 3.35 0 1.7 0 0 Z " fill="#F2F1ED" transform="translate(275,182)"/>
<path d="M0 0 C2.8125 0.125 2.8125 0.125 6 1 C7.625 3.8125 7.625 3.8125 9 7 C11.06167261 9.31418291 11.06167261 9.31418291 13 11 C12.67 11.66 12.34 12.32 12 13 C10.29622159 11.29622159 8.5926731 9.5922263 6.890625 7.88671875 C5.7396786 6.73815034 4.58451023 5.59376619 3.421875 4.45703125 C2.26378738 3.3222385 1.12926164 2.16348169 0 1 C0 0.67 0 0.34 0 0 Z " fill="#D1D2CB" transform="translate(186,193)"/>
<path d="M0 0 C0.33 0 0.66 0 1 0 C1 1.65 1 3.3 1 5 C0.34 5 -0.32 5 -1 5 C-0.814375 5.94875 -0.62875 6.8975 -0.4375 7.875 C0 11 0 11 -1 13 C-1.99 13 -2.98 13 -4 13 C-4.6875 10.1875 -4.6875 10.1875 -5 7 C-3.6875 5.125 -3.6875 5.125 -2 4 C-1.34 4 -0.68 4 0 4 C0 2.68 0 1.36 0 0 Z " fill="#DCDBD7" transform="translate(68,242)"/>
<path d="M0 0 C-0.33 0.66 -0.66 1.32 -1 2 C-3.25946584 2.35557331 -5.4899777 2.44330506 -7.7734375 2.55859375 C-10.40992861 3.08126655 -11.31415098 3.96066651 -13 6 C-13.66 4.68 -14.32 3.36 -15 2 C-9.75614911 0.2520497 -5.52677733 -0.19392201 0 0 Z " fill="#EBECE6" transform="translate(326,178)"/>
<path d="M0 0 C1.875 0.3125 1.875 0.3125 4 1 C6.00946222 0.72949547 8.01354224 0.40632091 10 0 C7.47524538 2.52475462 5.26502003 3.04307871 1.875 4.125 C0.77929688 4.47820312 -0.31640625 4.83140625 -1.4453125 5.1953125 C-2.28835938 5.46085938 -3.13140625 5.72640625 -4 6 C-4 4 -4 4 -2.25 1.8125 C-1.5075 1.214375 -0.765 0.61625 0 0 Z " fill="#E8E9E5" transform="translate(293,196)"/>
<path d="M0 0 C1.32 0 2.64 0 4 0 C4 0.66 4 1.32 4 2 C3.505 2.474375 3.01 2.94875 2.5 3.4375 C0.65373409 4.99969942 0.65373409 4.99969942 1 8 C0.34 8 -0.32 8 -1 8 C-1 7.34 -1 6.68 -1 6 C-1.66 5.67 -2.32 5.34 -3 5 C-3 4.01 -3 3.02 -3 2 C-2.01 2 -1.02 2 0 2 C0 1.34 0 0.68 0 0 Z " fill="#DAD9D4" transform="translate(77,193)"/>
<path d="M0 0 C3.5865054 1.33213058 6.87682483 2.76916059 10 5 C10 5.99 10 6.98 10 8 C5.74508335 7.52723148 3.77457155 5.07452523 1 2 C0.67 1.34 0.34 0.68 0 0 Z " fill="#E8E8E5" transform="translate(199,182)"/>
<path d="M0 0 C0 0.66 0 1.32 0 2 C-1.95927063 3.7143618 -3.95880212 5.38405168 -6 7 C-6 6.01 -6 5.02 -6 4 C-6.33 3.01 -6.66 2.02 -7 1 C-4.53721199 -0.231394 -2.7204945 -0.07159196 0 0 Z " fill="#DCDDD4" transform="translate(295,221)"/>
<path d="M0 0 C0.66 0.33 1.32 0.66 2 1 C2.4140625 3.06640625 2.4140625 3.06640625 2.625 5.5625 C2.69976562 6.38878906 2.77453125 7.21507812 2.8515625 8.06640625 C2.92503906 9.02353516 2.92503906 9.02353516 3 10 C2.67 9.34 2.34 8.68 2 8 C1.01 8.33 0.02 8.66 -1 9 C-0.835 8.071875 -0.67 7.14375 -0.5 6.1875 C0.07748388 3.04378647 0.07748388 3.04378647 0 0 Z " fill="#E8E7E3" transform="translate(178,218)"/>
<path d="M0 0 C0.598125 0.165 1.19625 0.33 1.8125 0.5 C4.11344336 1.1114124 4.11344336 1.1114124 7 1 C7 2.98 7 4.96 7 7 C5.83040013 6.02433888 4.66438823 5.044375 3.5 4.0625 C2.8503125 3.51722656 2.200625 2.97195312 1.53125 2.41015625 C1.0259375 1.94480469 0.520625 1.47945312 0 1 C0 0.67 0 0.34 0 0 Z " fill="#E8E9E3" transform="translate(204,201)"/>
<path d="M0 0 C-0.66 1.32 -1.32 2.64 -2 4 C-2 3.34 -2 2.68 -2 2 C-5.60992379 2.65585189 -5.60992379 2.65585189 -9 4 C-9 3.01 -9 2.02 -9 1 C-2.25 -1.125 -2.25 -1.125 0 0 Z " fill="#E9E9E7" transform="translate(295,232)"/>
<path d="M0 0 C2 1 2 1 3.125 3.25 C4.00513321 6.01613295 4.1645438 8.12048351 4 11 C3.34 10.34 2.68 9.68 2 9 C2 8.01 2 7.02 2 6 C1.34 6 0.68 6 0 6 C0 4.02 0 2.04 0 0 Z " fill="#D4D4CA" transform="translate(214,218)"/>
<path d="M0 0 C-1.24420647 0.5345256 -2.49570936 1.05208611 -3.75 1.5625 C-4.44609375 1.85253906 -5.1421875 2.14257812 -5.859375 2.44140625 C-8.30012784 3.07831803 -9.6403655 2.80248831 -12 2 C-7.75950782 -0.82699479 -4.85416215 -1.37070821 0 0 Z " fill="#EBECE6" transform="translate(315,216)"/>
<path d="M0 0 C0.66 0 1.32 0 2 0 C2 1.32 2 2.64 2 4 C1.34 4 0.68 4 0 4 C0 7.3 0 10.6 0 14 C-0.33 14 -0.66 14 -1 14 C-1.02685938 11.85423363 -1.04633088 9.70837355 -1.0625 7.5625 C-1.07410156 6.36753906 -1.08570313 5.17257813 -1.09765625 3.94140625 C-1 1 -1 1 0 0 Z " fill="#E9E8E3" transform="translate(407,210)"/>
<path d="M0 0 C0.66 0 1.32 0 2 0 C1.979375 1.11375 1.95875 2.2275 1.9375 3.375 C1.73619282 6.83215921 1.73619282 6.83215921 3 9 C1.35 9 -0.3 9 -2 9 C-1.34 6.03 -0.68 3.06 0 0 Z " fill="#E9E8E4" transform="translate(129,197)"/>
<path d="M0 0 C0.99 0.495 0.99 0.495 2 1 C2 1.99 2 2.98 2 4 C2.99 4.33 3.98 4.66 5 5 C5.33 6.65 5.66 8.3 6 10 C5.01 9.01 4.02 8.02 3 7 C2.01 7.495 2.01 7.495 1 8 C0.67 5.36 0.34 2.72 0 0 Z " fill="#DAD9D5" transform="translate(328,181)"/>
<path d="M0 0 C1.83836919 3.67673838 2.93651813 7.04992447 4 11 C2.68 11 1.36 11 0 11 C0 7.37 0 3.74 0 0 Z " fill="#CDD0C8" transform="translate(170,245)"/>
<path d="M0 0 C2.46278801 2.46278801 2.99771255 4.70676982 4 8 C3.01 8.33 2.02 8.66 1 9 C-0.4783226 6.04335481 -0.06032783 3.25770263 0 0 Z " fill="#D8D9D4" transform="translate(267,207)"/>
<path d="M0 0 C0.99 0.33 1.98 0.66 3 1 C1.88820837 4.33537489 0.52588702 5.63707344 -2 8 C-2.66 7.67 -3.32 7.34 -4 7 C-2.68 4.69 -1.36 2.38 0 0 Z " fill="#E7E7E4" transform="translate(139,173)"/>
<path d="M0 0 C0.625 1.875 0.625 1.875 1 4 C0.34 4.66 -0.32 5.32 -1 6 C-1.66 5.34 -2.32 4.68 -3 4 C-3.99 4 -4.98 4 -6 4 C-6 3.34 -6 2.68 -6 2 C-4.02 1.34 -2.04 0.68 0 0 Z " fill="#EAE9E3" transform="translate(306,200)"/>
<path d="M0 0 C0.99 0.33 1.98 0.66 3 1 C3 3.97 3 6.94 3 10 C1 9 1 9 0.3125 7.0625 C0 5 0 5 1 3 C0.67 2.01 0.34 1.02 0 0 Z " fill="#EBEBE8" transform="translate(227,174)"/>
<path d="M0 0 C1.5 1.0625 1.5 1.0625 3 3 C3.1875 6.6875 3.1875 6.6875 3 10 C1.62437146 8.71034824 0.29233607 7.37310707 -1 6 C-1 5.34 -1 4.68 -1 4 C-0.34 4 0.32 4 1 4 C0.67 2.68 0.34 1.36 0 0 Z " fill="#E8E9E6" transform="translate(155,175)"/>
<path d="M0 0 C0 0.66 0 1.32 0 2 C-0.763125 2.12375 -1.52625 2.2475 -2.3125 2.375 C-5.20267136 2.88102792 -5.20267136 2.88102792 -8 5 C-7.625 3.0625 -7.625 3.0625 -7 1 C-4.53721199 -0.231394 -2.7204945 -0.07159196 0 0 Z " fill="#EAEAE6" transform="translate(226,172)"/>
</svg>
