<?xml version="1.0" encoding="UTF-8"?>
<svg version="1.1" xmlns="http://www.w3.org/2000/svg" width="500" height="500">
<path d="M0 0 C1.0828125 0.1546875 1.0828125 0.1546875 2.1875 0.3125 C2.1875 0.9725 2.1875 1.6325 2.1875 2.3125 C3.5075 2.6425 4.8275 2.9725 6.1875 3.3125 C6.1875 3.9725 6.1875 4.6325 6.1875 5.3125 C7.8375 5.3125 9.4875 5.3125 11.1875 5.3125 C12.1775 9.7675 12.1775 9.7675 13.1875 14.3125 C13.8475 14.3125 14.5075 14.3125 15.1875 14.3125 C18.75 26.1875 18.75 26.1875 17.1875 29.3125 C17.147508 31.31210012 17.14403201 33.31297242 17.1875 35.3125 C17.538125 34.508125 17.88875 33.70375 18.25 32.875 C20.1875 30.3125 20.1875 30.3125 23.875 29.5 C24.968125 29.438125 26.06125 29.37625 27.1875 29.3125 C26.71699219 28.83941406 26.24648437 28.36632812 25.76171875 27.87890625 C21.39623987 23.24227961 17.9088243 18.81644074 17.1875 12.3125 C18.5537598 8.13781728 19.52882955 6.75161363 23.1875 4.3125 C36.7361747 3.00133793 50.50414031 9.38295068 61.0625 17.53125 C61.76375 18.1190625 62.465 18.706875 63.1875 19.3125 C63.26226562 18.69761719 63.33703125 18.08273438 63.4140625 17.44921875 C63.8216829 14.94355218 64.28783615 12.68897055 65.1875 10.3125 C68.0625 8.5 68.0625 8.5 71.1875 7.3125 C71.785625 6.57 72.38375 5.8275 73 5.0625 C75.69128762 2.90946991 76.53602589 3.15767616 79.875 3.5 C83.9875 4.1125 83.9875 4.1125 85.1875 5.3125 C85.8894254 10.57694048 86.31658944 15.84551096 86.71875 21.140625 C86.80705078 22.29981445 86.89535156 23.45900391 86.98632812 24.65332031 C87.05271484 25.53084961 87.11910156 26.40837891 87.1875 27.3125 C91.16892329 25.42138039 95.1472081 23.52374454 99.125 21.625 C100.24197266 21.09455078 101.35894531 20.56410156 102.50976562 20.01757812 C108.24750747 17.27490387 113.87990056 14.46908076 119.3605957 11.23925781 C122.1653664 9.81644483 124.12813369 9.68672053 127.1875 10.3125 C130.0625 12.1875 130.0625 12.1875 132.1875 14.3125 C132.1875 14.9725 132.1875 15.6325 132.1875 16.3125 C133.51587891 15.82330078 133.51587891 15.82330078 134.87109375 15.32421875 C141.93835217 12.83119002 148.86012532 10.7910952 156.25 9.5 C156.95116943 9.3764917 157.65233887 9.2529834 158.37475586 9.12573242 C168.50245045 7.46997523 168.50245045 7.46997523 172.1875 9.3125 C174.1967226 9.3125 176.20651908 9.31006205 178.21484375 9.25 C180.1875 9.3125 180.1875 9.3125 183.1875 10.3125 C183.620625 9.85875 184.05375 9.405 184.5 8.9375 C187.42096733 6.12471664 189.40172945 5.06497901 193.37670898 5.00952148 C194.21866318 4.99287949 195.06061737 4.97623749 195.92808533 4.95909119 C196.83740311 4.95067703 197.74672089 4.94226288 198.68359375 4.93359375 C200.09947533 4.90810204 200.09947533 4.90810204 201.54396057 4.88209534 C204.57090501 4.82893579 207.59783945 4.7887388 210.625 4.75 C214.58213013 4.69152024 218.5391285 4.62730881 222.49609375 4.55859375 C223.91887131 4.53464287 223.91887131 4.53464287 225.37039185 4.51020813 C231.20472658 4.39677076 236.98690081 4.12882849 242.79418945 3.52197266 C246.92033374 3.16083507 251.04959141 3.23010801 255.1875 3.3125 C255.8475 5.6225 256.5075 7.9325 257.1875 10.3125 C257.620625 9.8175 258.05375 9.3225 258.5 8.8125 C260.1875 7.3125 260.1875 7.3125 263.1875 7.3125 C264.2703125 6.8175 264.2703125 6.8175 265.375 6.3125 C269.11416072 4.98302063 272.32332448 4.41418613 276.1875 5.3125 C284.08170008 9.71111333 287.42013145 17.36948048 289.8984375 25.703125 C291.00176043 30.2763186 291.5430215 34.87944657 291.94140625 39.5625 C292.01205395 41.33763699 292.01205395 41.33763699 293.1875 42.3125 C294.28398195 54.26595078 292.78258241 68.66321533 285.6171875 78.69921875 C281.7798954 83.02927787 277.8655756 87.11709018 271.921875 87.55078125 C270.60703125 87.57527344 269.2921875 87.59976563 267.9375 87.625 C266.63296875 87.66238281 265.3284375 87.69976562 263.984375 87.73828125 C258.69545379 87.14518206 255.75616143 84.88116143 252.0625 81.1875 C246.8608646 73.21165905 245.14434831 64.6826121 244.1875 55.3125 C244.05988281 54.11560547 244.05988281 54.11560547 243.9296875 52.89453125 C243.54636164 45.47078706 245.58747819 38.35339575 247.3125 31.19140625 C248.2975249 27.48748444 248.2975249 27.48748444 248.1875 24.3125 C246.52067469 24.4565088 244.85404815 24.60281844 243.1875 24.75 C242.259375 24.83121094 241.33125 24.91242188 240.375 24.99609375 C237.90518893 25.24125882 235.45005244 25.52123326 232.98828125 25.83227539 C231.73402344 25.99074951 230.47976563 26.14922363 229.1875 26.3125 C229.2044693 26.95063629 229.2214386 27.58877258 229.23892212 28.24624634 C229.41367867 34.89712707 229.57345984 41.5482488 229.72460938 48.19970703 C229.78295272 50.68091987 229.84509433 53.16204645 229.91113281 55.64306641 C230.00547657 59.21240534 230.08608792 62.78183304 230.1640625 66.3515625 C230.21235703 68.01126572 230.21235703 68.01126572 230.2616272 69.70449829 C230.45214385 79.53289405 230.45214385 79.53289405 228.1875 84.3125 C227.5275 84.9725 226.8675 85.6325 226.1875 86.3125 C225.5275 86.3125 224.8675 86.3125 224.1875 86.3125 C223.8575 86.6425 223.5275 86.9725 223.1875 87.3125 C221.19140625 87.515625 221.19140625 87.515625 218.75 87.5625 C217.94691406 87.58828125 217.14382813 87.6140625 216.31640625 87.640625 C215.61386719 87.53234375 214.91132813 87.4240625 214.1875 87.3125 C210.95704745 82.46682118 211.06051142 77.53489663 211.0546875 71.83203125 C211.05275391 70.59340332 211.05082031 69.35477539 211.04882812 68.07861328 C211.05333984 66.7739209 211.05785156 65.46922852 211.0625 64.125 C211.06338623 63.46030701 211.06427246 62.79561401 211.06518555 62.11077881 C211.08235755 51.15272719 211.4165595 40.24333492 212.1875 29.3125 C210.57681641 29.14814453 210.57681641 29.14814453 208.93359375 28.98046875 C207.4973322 28.82088413 206.06113767 28.66069558 204.625 28.5 C203.92052734 28.42974609 203.21605469 28.35949219 202.49023438 28.28710938 C196.85364449 27.63773266 191.76779746 26.39338504 187.25 22.75 C186.1875 21.3125 186.1875 21.3125 186.1875 19.3125 C185.5275 19.3125 184.8675 19.3125 184.1875 19.3125 C184.1875 19.9725 184.1875 20.6325 184.1875 21.3125 C183.21647339 21.5755896 183.21647339 21.5755896 182.22583008 21.84399414 C169.55284278 25.29355871 156.98098708 28.88841844 144.5637207 33.17797852 C143.74991943 33.45826904 142.93611816 33.73855957 142.09765625 34.02734375 C141.38746338 34.27605225 140.67727051 34.52476074 139.94555664 34.78100586 C138.1875 35.3125 138.1875 35.3125 136.1875 35.3125 C136.5175 36.9625 136.8475 38.6125 137.1875 40.3125 C137.81615967 40.05557373 138.44481934 39.79864746 139.0925293 39.53393555 C163.04725552 29.79910992 163.04725552 29.79910992 173.1875 28.3125 C174.25484375 28.14427734 174.25484375 28.14427734 175.34375 27.97265625 C177.1875 27.8125 177.1875 27.8125 180.1875 28.3125 C183 30.6875 183 30.6875 185.1875 33.3125 C185.8475 33.9725 186.5075 34.6325 187.1875 35.3125 C187.52620968 41.63508065 187.52620968 41.63508065 186.1875 44.3125 C183.66577148 45.07104492 183.66577148 45.07104492 180.30859375 45.79296875 C179.08374268 46.06681396 177.8588916 46.34065918 176.59692383 46.62280273 C175.94736725 46.76579803 175.29781067 46.90879333 174.62857056 47.05612183 C163.90085483 49.43277827 153.76230915 52.13759805 143.86328125 57.02734375 C141.1875 58.3125 141.1875 58.3125 139.1875 58.3125 C139.5175 60.6225 139.8475 62.9325 140.1875 65.3125 C141.07945068 64.96469482 141.97140137 64.61688965 142.89038086 64.25854492 C146.23864539 62.95360323 149.58803219 61.65156301 152.93774414 60.3503418 C154.38010333 59.78959428 155.82216774 59.22808787 157.26391602 58.66577148 C182.46968072 48.83683377 182.46968072 48.83683377 188.21484375 51.1171875 C191.74360076 53.25540462 192.98245185 56.46870538 194.1875 60.3125 C194.64870795 64.03257291 194.85088134 67.61310316 194.1875 71.3125 C191.97248666 74.12088268 190.08232782 74.82637213 186.62890625 75.53125 C185.23381836 75.83844971 185.23381836 75.83844971 183.81054688 76.15185547 C182.29557617 76.47887451 182.29557617 76.47887451 180.75 76.8125 C169.54542582 79.37920938 159.17491038 83.20584675 148.63110352 87.70507812 C142.51069221 90.2612525 137.84168211 91.98118007 131.1875 91.3125 C131.14625 90.69375 131.105 90.075 131.0625 89.4375 C130.34662045 86.99098807 130.34662045 86.99098807 127.375 86.125 C125.54379825 85.65822308 123.71121541 85.19664699 121.875 84.75 C120.1875 84.3125 120.1875 84.3125 119.1875 83.3125 C119.01927734 81.72888672 119.01927734 81.72888672 118.84765625 80.11328125 C118.13390701 76.00394391 116.99574903 73.89142376 114.625 70.5 C113.90441406 69.46875 113.18382812 68.4375 112.44140625 67.375 C109.1530866 62.90698856 105.73564354 58.57617352 102.1875 54.3125 C101.63964844 53.62929687 101.09179688 52.94609375 100.52734375 52.2421875 C97.73835775 48.83263428 95.27467052 46.19038916 91.1875 44.3125 C90.1975 44.3125 89.2075 44.3125 88.1875 44.3125 C88.61159673 48.23073562 89.05431336 52.14666618 89.5 56.0625 C89.67692383 57.70025391 89.67692383 57.70025391 89.85742188 59.37109375 C90.62344972 66.01000174 91.8016226 72.32092924 93.59057617 78.76269531 C94.1875 81.3125 94.1875 81.3125 94.1875 85.3125 C89.4162117 88.11914018 84.57604956 87.96808021 79.1875 87.3125 C75.55798539 85.23849165 73.71336743 83.19652619 72.1875 79.3125 C71.548125 80.075625 70.90875 80.83875 70.25 81.625 C65.67053069 86.1530146 59.65757391 87.44698197 53.375 87.75 C47.29416692 87.58720604 41.81313448 85.47769265 36.1875 83.3125 C35.89746094 84.11945313 35.60742188 84.92640625 35.30859375 85.7578125 C34.1875 88.3125 34.1875 88.3125 32.25 89.1875 C30.1875 89.3125 30.1875 89.3125 27.1875 88.3125 C26.259375 88.7765625 26.259375 88.7765625 25.3125 89.25 C22.52576817 90.64336591 21.26693666 90.97237928 18.1875 90.3125 C12.71503601 85.91473178 10.36334258 79.78772383 8.1875 73.3125 C7.775 72.095625 7.3625 70.87875 6.9375 69.625 C6.13657894 66.08759866 6.03994287 62.92764957 6.1875 59.3125 C5.1975 59.3125 4.2075 59.3125 3.1875 59.3125 C3.1875 58.6525 3.1875 57.9925 3.1875 57.3125 C1.2075 57.6425 -0.7725 57.9725 -2.8125 58.3125 C-2.91272461 58.95799805 -3.01294922 59.60349609 -3.11621094 60.26855469 C-3.58151499 63.20281903 -4.07170756 66.13239586 -4.5625 69.0625 C-4.71976562 70.07828125 -4.87703125 71.0940625 -5.0390625 72.140625 C-5.20664063 73.1203125 -5.37421875 74.1 -5.546875 75.109375 C-5.69350586 76.01010742 -5.84013672 76.91083984 -5.99121094 77.83886719 C-6.99522301 80.86284173 -8.47637334 82.19170522 -10.8125 84.3125 C-11.410625 85.22 -12.00875 86.1275 -12.625 87.0625 C-14.8125 89.3125 -14.8125 89.3125 -18.4375 89.6875 C-21.8125 89.3125 -21.8125 89.3125 -23.8125 88.3125 C-26.48495393 88.07090539 -29.13420525 87.88552143 -31.8125 87.75 C-32.61631104 87.7089917 -33.42012207 87.6679834 -34.24829102 87.62573242 C-47.21233419 87.01561522 -59.82658098 86.9998941 -72.70874023 88.77661133 C-78.50076929 89.52032047 -78.50076929 89.52032047 -81.8125 87.3125 C-82.6875 83.875 -82.6875 83.875 -82.8125 80.3125 C-81.5 78.375 -81.5 78.375 -79.8125 77.3125 C-79.1525 77.3125 -78.4925 77.3125 -77.8125 77.3125 C-77.9775 76.095625 -78.1425 74.87875 -78.3125 73.625 C-79.00411175 67.5271274 -78.89774443 61.44062763 -78.8125 55.3125 C-79.616875 55.333125 -80.42125 55.35375 -81.25 55.375 C-83.8125 55.3125 -83.8125 55.3125 -84.8125 54.3125 C-85.26625286 50.41022538 -85.19605191 48.813167 -82.765625 45.640625 C-80.20838219 41.28308325 -80.54999405 38.60761702 -81.25 33.75 C-81.35731445 32.6372168 -81.35731445 32.6372168 -81.46679688 31.50195312 C-82.13463443 26.25732674 -83.61374925 23.77929737 -87.8125 20.3125 C-88.8125 19.3125 -88.8125 19.3125 -88.875 15.75 C-88.854375 14.615625 -88.83375 13.48125 -88.8125 12.3125 C-82.85330529 8.07485043 -78.05045469 7.26803565 -70.8125 8.3125 C-56.35289694 12.06867275 -45.02445211 19.73008911 -33.8125 29.3125 C-32.94109375 29.99441406 -32.0696875 30.67632812 -31.171875 31.37890625 C-28.24690319 33.77602718 -26.16092013 36.36020041 -23.8125 39.3125 C-22.1625 38.9825 -20.5125 38.6525 -18.8125 38.3125 C-18.626875 37.00152344 -18.626875 37.00152344 -18.4375 35.6640625 C-17.13273064 27.88437522 -15.12265771 20.91798628 -11.9375 13.6875 C-11.61007813 12.93033691 -11.28265625 12.17317383 -10.9453125 11.39306641 C-8.63630998 6.35452525 -6.03126017 0.67014002 0 0 Z M259.1875 9.3125 C260.1875 11.3125 260.1875 11.3125 260.1875 11.3125 Z M160.1875 11.3125 C164.1875 12.3125 164.1875 12.3125 164.1875 12.3125 Z M156.1875 12.3125 C160.1875 13.3125 160.1875 13.3125 160.1875 13.3125 Z M152.1875 13.3125 C156.1875 14.3125 156.1875 14.3125 156.1875 14.3125 Z M148.1875 14.3125 C152.1875 15.3125 152.1875 15.3125 152.1875 15.3125 Z M83.1875 15.3125 C83.1875 18.2825 83.1875 21.2525 83.1875 24.3125 C83.5175 24.3125 83.8475 24.3125 84.1875 24.3125 C84.1875 21.3425 84.1875 18.3725 84.1875 15.3125 C83.8575 15.3125 83.5275 15.3125 83.1875 15.3125 Z M143.1875 15.3125 C147.1875 16.3125 147.1875 16.3125 147.1875 16.3125 Z M253.1875 15.3125 C254.1875 17.3125 254.1875 17.3125 254.1875 17.3125 Z M270.1875 19.3125 C267.91692897 25.35307576 266.69835812 30.87568772 266.1875 37.3125 C265.8575 37.3125 265.5275 37.3125 265.1875 37.3125 C265.1580809 40.79164843 265.14056208 44.27076417 265.125 47.75 C265.11662109 48.72388672 265.10824219 49.69777344 265.09960938 50.70117188 C265.07967922 56.66028969 265.41140482 62.40317683 266.1875 68.3125 C265.5275 68.3125 264.8675 68.3125 264.1875 68.3125 C263.8575 68.9725 263.5275 69.6325 263.1875 70.3125 C261.7025 70.8075 261.7025 70.8075 260.1875 71.3125 C261.15191531 73.72353827 261.87547047 75.08654758 264 76.625 C267.01411673 77.57229383 268.27244003 77.62427699 271.1875 76.3125 C279.91554892 64.76508133 277.55047338 48.06466743 275.8984375 34.69921875 C275.11732617 29.27014317 273.45116856 24.30136177 271.1875 19.3125 C270.8575 19.3125 270.5275 19.3125 270.1875 19.3125 Z M-67.8125 25.3125 C-67.668125 26.323125 -67.52375 27.33375 -67.375 28.375 C-66.85416667 32.02083333 -66.33333333 35.66666667 -65.8125 39.3125 C-60.02658489 39.41727512 -54.51940634 39.30500545 -48.8125 38.3125 C-48.4825 37.3225 -48.1525 36.3325 -47.8125 35.3125 C-56.84022868 27.90938847 -56.84022868 27.90938847 -67.8125 25.3125 Z M44.1875 26.3125 C49.46158241 32.5832594 55.0495492 38.50951436 60.70507812 44.43554688 C61.39666016 45.16451172 62.08824219 45.89347656 62.80078125 46.64453125 C63.42766846 47.30171143 64.05455566 47.9588916 64.70043945 48.63598633 C66.1875 50.3125 66.1875 50.3125 67.1875 52.3125 C67.8475 51.9825 68.5075 51.6525 69.1875 51.3125 C66.04838247 40.96445429 62.33261843 34.21286792 52.67578125 28.94140625 C48.59289486 26.96611433 48.59289486 26.96611433 44.1875 26.3125 Z M0.1875 27.3125 C-2.45722478 33.59525689 -2.45722478 33.59525689 -2.8125 40.3125 C-1.1625 39.9825 0.4875 39.6525 2.1875 39.3125 C1.8575 35.3525 1.5275 31.3925 1.1875 27.3125 C0.8575 27.3125 0.5275 27.3125 0.1875 27.3125 Z M113.5625 32.3125 C112.44875 32.9725 111.335 33.6325 110.1875 34.3125 C110.56261719 34.74820313 110.93773437 35.18390625 111.32421875 35.6328125 C111.83597656 36.22835937 112.34773437 36.82390625 112.875 37.4375 C113.41898438 38.07042969 113.96296875 38.70335937 114.5234375 39.35546875 C116.03794371 41.13661337 117.52168206 42.93884439 119 44.75 C119.721875 45.595625 120.44375 46.44125 121.1875 47.3125 C121.5175 47.3125 121.8475 47.3125 122.1875 47.3125 C122.58964229 41.14631819 121.15568336 36.13504243 119.1875 30.3125 C116.72448577 30.3125 115.66686722 31.06546757 113.5625 32.3125 Z M30.1875 32.3125 C30.85174387 37.17526643 31.6360355 41.99089981 32.5625 46.8125 C32.91441406 48.68421875 32.91441406 48.68421875 33.2734375 50.59375 C35.24541686 58.61650365 38.71200893 65.99365956 45.1875 71.3125 C48.0262401 71.68021245 50.20570151 71.79880804 53 71.625 C53.69287109 71.60244141 54.38574219 71.57988281 55.09960938 71.55664062 C56.79651573 71.49812661 58.49229861 71.4084548 60.1875 71.3125 C61.51325833 69.66710678 61.51325833 69.66710678 62.1875 67.3125 C60.47653306 62.68792993 57.79337502 59.49139249 54.4375 55.9375 C51.40301425 52.68720902 48.39550418 49.43730532 45.5 46.0625 C38.69303122 38.17787948 38.69303122 38.17787948 30.1875 32.3125 Z M263.1875 32.3125 C264.1875 34.3125 264.1875 34.3125 264.1875 34.3125 Z M262.1875 36.3125 C262.1875 38.2925 262.1875 40.2725 262.1875 42.3125 C262.5175 42.3125 262.8475 42.3125 263.1875 42.3125 C263.1875 40.3325 263.1875 38.3525 263.1875 36.3125 C262.8575 36.3125 262.5275 36.3125 262.1875 36.3125 Z M261.1875 44.3125 C261.1875 46.6225 261.1875 48.9325 261.1875 51.3125 C261.5175 51.3125 261.8475 51.3125 262.1875 51.3125 C262.1875 49.0025 262.1875 46.6925 262.1875 44.3125 C261.8575 44.3125 261.5275 44.3125 261.1875 44.3125 Z M-42.8125 52.3125 C-40.15098768 55.06453995 -37.41827844 57.4918024 -34.375 59.8125 C-33.59382813 60.41191406 -32.81265625 61.01132813 -32.0078125 61.62890625 C-31.28335938 62.18449219 -30.55890625 62.74007812 -29.8125 63.3125 C-28.14251351 64.64167292 -26.47392513 65.97264102 -24.8125 67.3125 C-23.24977811 62.91996227 -23.24977811 62.91996227 -22.8125 58.3125 C-23.8025 58.3125 -24.7925 58.3125 -25.8125 58.3125 C-25.8125 57.6525 -25.8125 56.9925 -25.8125 56.3125 C-29.09169512 53.02518806 -32.04554992 52.8508475 -36.5625 52.625 C-38.31820312 52.52638672 -38.31820312 52.52638672 -40.109375 52.42578125 C-41.00140625 52.38839844 -41.8934375 52.35101563 -42.8125 52.3125 Z M70.1875 53.3125 C71.1875 56.3125 71.1875 56.3125 71.1875 56.3125 Z M262.1875 55.3125 C262.1875 57.6225 262.1875 59.9325 262.1875 62.3125 C262.5175 62.3125 262.8475 62.3125 263.1875 62.3125 C263.1875 60.0025 263.1875 57.6925 263.1875 55.3125 C262.8575 55.3125 262.5275 55.3125 262.1875 55.3125 Z M-63.8125 57.3125 C-63.1525 62.9225 -62.4925 68.5325 -61.8125 74.3125 C-48.4475 74.8075 -48.4475 74.8075 -34.8125 75.3125 C-38.1901591 71.09042613 -40.94006219 68.53741589 -45.375 65.75 C-45.98617676 65.36013916 -46.59735352 64.97027832 -47.22705078 64.56860352 C-52.52245924 61.29183724 -57.85569161 59.16394045 -63.8125 57.3125 Z M263.1875 62.3125 C263.1875 63.9625 263.1875 65.6125 263.1875 67.3125 C263.5175 67.3125 263.8475 67.3125 264.1875 67.3125 C264.1875 65.6625 264.1875 64.0125 264.1875 62.3125 C263.8575 62.3125 263.5275 62.3125 263.1875 62.3125 Z M25.1875 82.3125 C26.1875 84.3125 26.1875 84.3125 26.1875 84.3125 Z " fill="#282828" transform="translate(145.8125,168.6875)"/>
<path d="M0 0 C4.61513112 1.31860889 8.09897612 3.21355437 12 6 C11.01 7.485 11.01 7.485 10 9 C9.34 9 8.68 9 8 9 C6.47254343 12.05491313 6 14.58012972 6 18 C5.25234375 17.65066406 4.5046875 17.30132812 3.734375 16.94140625 C2.74953125 16.48636719 1.7646875 16.03132813 0.75 15.5625 C-0.22453125 15.11003906 -1.1990625 14.65757812 -2.203125 14.19140625 C-4.49251695 13.21617644 -6.57378746 12.5025726 -9 12 C-8.67 13.010625 -8.34 14.02125 -8 15.0625 C-6.80864062 18.71103811 -6.92673041 22.1854022 -7 26 C-5.87980469 25.855625 -4.75960937 25.71125 -3.60546875 25.5625 C-2.13282497 25.37490207 -0.66016803 25.18740745 0.8125 25 C1.55048828 24.90460938 2.28847656 24.80921875 3.04882812 24.7109375 C7.07867152 24.20036911 10.9431125 24 15 24 C14.625 25.9375 14.625 25.9375 14 28 C13.34 28.33 12.68 28.66 12 29 C12 28.34 12 27.68 12 27 C5.4 27 -1.2 27 -8 27 C-10.28571429 16.42857143 -10.28571429 16.42857143 -10 11 C-5.55790643 10.89165625 -1.38585329 11.29826347 3 12 C2.979375 11.030625 2.95875 10.06125 2.9375 9.0625 C3 6 3 6 4 5 C3.34 4.67 2.68 4.34 2 4 C0.875 1.9375 0.875 1.9375 0 0 Z " fill="#272725" transform="translate(87,182)"/>
<path d="M0 0 C-1.0625 2 -1.0625 2 -3 4 C-5.33284758 4.04760913 -7.66696056 4.03703237 -10 4 C-13.39671231 4.81438626 -16.69169924 5.88373768 -20 7 C-23 8 -23 8 -25.5625 8.4375 C-28.1645205 8.81118788 -28.1645205 8.81118788 -30 11 C-32.18745776 11.77039001 -34.40008429 12.47061303 -36.625 13.125 C-37.81351562 13.47820312 -39.00203125 13.83140625 -40.2265625 14.1953125 C-41.14179688 14.46085938 -42.05703125 14.72640625 -43 15 C-42.649375 13.9275 -42.29875 12.855 -41.9375 11.75 C-40.93284239 7.74564889 -40.93284239 7.74564889 -42 4 C-40.68 4.66 -39.36 5.32 -38 6 C-38 6.66 -38 7.32 -38 8 C-36.67162109 7.51080078 -36.67162109 7.51080078 -35.31640625 7.01171875 C-28.24914783 4.51869002 -21.32737468 2.4785952 -13.9375 1.1875 C-13.23633057 1.0639917 -12.53516113 0.9404834 -11.81274414 0.81323242 C-7.8380364 0.16341514 -4.02453294 -0.11929193 0 0 Z " fill="#171817" transform="translate(316,177)"/>
<path d="M0 0 C0.33 0 0.66 0 1 0 C0.67 5.28 0.34 10.56 0 16 C-0.33 16 -0.66 16 -1 16 C-1 25.9 -1 35.8 -1 46 C-1.66 46 -2.32 46 -3 46 C-3.33 46.66 -3.66 47.32 -4 48 C-3.95875 46.906875 -3.9175 45.81375 -3.875 44.6875 C-3.85906733 40.19448664 -4.68831143 36.01120032 -5.55859375 31.6171875 C-6.10314793 28.38841491 -6.06668065 25.26735163 -6 22 C-6.20367187 21.41605469 -6.40734375 20.83210938 -6.6171875 20.23046875 C-7.18832932 16.90269343 -6.1109935 14.42725303 -5.0625 11.25 C-4.68222656 10.07953125 -4.30195313 8.9090625 -3.91015625 7.703125 C-3.60980469 6.81109375 -3.30945313 5.9190625 -3 5 C-2.34 5 -1.68 5 -1 5 C-0.67 3.35 -0.34 1.7 0 0 Z M-4 10 C-3 12 -3 12 -3 12 Z M-5 14 C-5 15.98 -5 17.96 -5 20 C-4.67 20 -4.34 20 -4 20 C-4 18.02 -4 16.04 -4 14 C-4.33 14 -4.66 14 -5 14 Z " fill="#121312" transform="translate(413,191)"/>
<path d="M0 0 C0.99 0.66 1.98 1.32 3 2 C2.44291299 5.58792696 1.84981924 9.1689896 1.25 12.75 C1.01410156 14.27367187 1.01410156 14.27367187 0.7734375 15.828125 C0.60585937 16.8078125 0.43828125 17.7875 0.265625 18.796875 C0.11899414 19.69760742 -0.02763672 20.59833984 -0.17871094 21.52636719 C-1.18272301 24.55034173 -2.66387334 25.87920522 -5 28 C-5.8971875 29.36125 -5.8971875 29.36125 -6.8125 30.75 C-9 33 -9 33 -12.75 33.3125 C-13.8225 33.209375 -14.895 33.10625 -16 33 C-16 32.67 -16 32.34 -16 32 C-15.05125 31.7525 -14.1025 31.505 -13.125 31.25 C-9.95700157 30.31040284 -9.95700157 30.31040284 -8.625 28.0625 C-7.8549963 25.88067404 -7.8549963 25.88067404 -8 23 C-7.34 23 -6.68 23 -6 23 C-5.87882813 21.99839844 -5.75765625 20.99679688 -5.6328125 19.96484375 C-5.46382849 18.6223597 -5.29454142 17.27991377 -5.125 15.9375 C-5.04636719 15.28072266 -4.96773437 14.62394531 -4.88671875 13.94726562 C-4.3129501 9.46745651 -3.47154195 5.27837197 -2 1 C-1.34 0.67 -0.68 0.34 0 0 Z " fill="#151418" transform="translate(140,225)"/>
<path d="M0 0 C3.3 0 6.6 0 10 0 C10.66 2.31 11.32 4.62 12 7 C12.99 6.01 13.98 5.02 15 4 C15.33663062 7.70293685 15.47736015 9.39534381 13.125 12.375 C11 14 11 14 9 14 C8.80664062 14.67546875 8.61328125 15.3509375 8.4140625 16.046875 C8.02347656 17.38492188 8.02347656 17.38492188 7.625 18.75 C7.24214844 20.07257813 7.24214844 20.07257813 6.8515625 21.421875 C6.0790066 23.76080572 5.16374324 25.83442562 4 28 C3.31292445 25.50935112 3 23.62113708 3 21 C-3.35219042 21.54881057 -9.67873638 22.16511613 -16 23 C-16.33 23.99 -16.66 24.98 -17 26 C-17.33 25.01 -17.66 24.02 -18 23 C-15.33217444 20.33217444 -13.39395116 20.40389337 -9.6875 19.875 C-8.55699219 19.70742187 -7.42648437 19.53984375 -6.26171875 19.3671875 C-3.46572381 19.05242879 -0.80843941 18.92623236 2 19 C2.33 18.34 2.66 17.68 3 17 C3.66 17 4.32 17 5 17 C7.48599237 11.48758213 9 7.12892216 9 1 C6.03 1 3.06 1 0 1 C0 0.67 0 0.34 0 0 Z M8 12 C9 14 9 14 9 14 Z " fill="#151515" transform="translate(391,172)"/>
<path d="M0 0 C0 0.33 0 0.66 0 1 C-0.75925781 1.06058594 -1.51851563 1.12117187 -2.30078125 1.18359375 C-3.29464844 1.26738281 -4.28851563 1.35117188 -5.3125 1.4375 C-6.29863281 1.51871094 -7.28476562 1.59992188 -8.30078125 1.68359375 C-11.09375599 1.91812559 -11.09375599 1.91812559 -14 3 C-16.51368055 3.0846817 -18.99869374 3.11601885 -21.51171875 3.09765625 C-22.23994339 3.0962413 -22.96816803 3.09482635 -23.71846008 3.09336853 C-26.04151539 3.08777659 -28.36447388 3.07522562 -30.6875 3.0625 C-32.26367048 3.05748396 -33.83984248 3.05292123 -35.41601562 3.04882812 C-39.27738098 3.0378098 -43.13867408 3.02055074 -47 3 C-47 3.66 -47 4.32 -47 5 C-47.66 4.67 -48.32 4.34 -49 4 C-52.67168136 4 -55.54310037 4.78368346 -59 6 C-59.33 6.99 -59.66 7.98 -60 9 C-61.32 8.67 -62.64 8.34 -64 8 C-62.3584951 4.7169902 -59.17097149 3.72962081 -56 2 C-56 1.67 -56 1.34 -56 1 C-49.95349176 0.85577981 -43.90694309 0.71343908 -37.86035156 0.57275391 C-35.80825642 0.52475356 -33.75617271 0.47626158 -31.70410156 0.42724609 C-9.8272867 -0.09464482 -9.8272867 -0.09464482 0 0 Z " fill="#1D1C1B" transform="translate(391,173)"/>
<path d="M0 0 C0.99 0.33 1.98 0.66 3 1 C4.1875 3.5625 4.1875 3.5625 5 6 C5.66 5.34 6.32 4.68 7 4 C7.99 4 8.98 4 10 4 C10.33 3.01 10.66 2.02 11 1 C13.46800047 2.15173355 15.04783565 3.04783565 17 5 C14.525 4.505 14.525 4.505 12 4 C11.7525 4.804375 11.505 5.60875 11.25 6.4375 C10 9 10 9 8.0625 9.875 C6 10 6 10 3 9 C2.38125 9.309375 1.7625 9.61875 1.125 9.9375 C-1.47171127 11.23585563 -3.13219886 11.37734225 -6 11 C-6.66 10.01 -7.32 9.02 -8 8 C-7.030625 8.185625 -6.06125 8.37125 -5.0625 8.5625 C-4.051875 8.706875 -3.04125 8.85125 -2 9 C-1.67 8.67 -1.34 8.34 -1 8 C-1 6.845 -1 5.69 -1 4.5 C-1 1 -1 1 0 0 Z M1 3 C2 5 2 5 2 5 Z " fill="#1E1E1C" transform="translate(170,248)"/>
<path d="M0 0 C5.41538462 -0.36923077 5.41538462 -0.36923077 8.375 1.5 C8.91125 1.995 9.4475 2.49 10 3 C5.545 2.01 5.545 2.01 1 1 C1.33 2.010625 1.66 3.02125 2 4.0625 C3.19135938 7.71103811 3.07326959 11.1854022 3 15 C4.12019531 14.855625 5.24039063 14.71125 6.39453125 14.5625 C7.86717503 14.37490207 9.33983197 14.18740745 10.8125 14 C11.55048828 13.90460938 12.28847656 13.80921875 13.04882812 13.7109375 C17.07867152 13.20036911 20.9431125 13 25 13 C24.625 14.9375 24.625 14.9375 24 17 C23.34 17.33 22.68 17.66 22 18 C22 17.34 22 16.68 22 16 C15.4 16 8.8 16 2 16 C-0.28571429 5.42857143 -0.28571429 5.42857143 0 0 Z " fill="#151515" transform="translate(77,193)"/>
<path d="M0 0 C0.625 2.0625 0.625 2.0625 1 4 C-0.78953185 4.83790789 -2.58169695 5.67019396 -4.375 6.5 C-5.87160156 7.19609375 -5.87160156 7.19609375 -7.3984375 7.90625 C-10 9 -10 9 -12 9 C-12.33 9.99 -12.66 10.98 -13 12 C-12.75148178 7.77519025 -12.39147413 5.50021694 -9.75 2.125 C-6.49048016 -0.39371988 -3.89362044 -1.94681022 0 0 Z " fill="#1C1C1B" transform="translate(297,218)"/>
<path d="M0 0 C0.66 0 1.32 0 2 0 C3.00214897 3.00644691 3.06623054 4.71978346 2.92993164 7.83862305 C2.88981461 8.8194133 2.84969757 9.80020355 2.80836487 10.81071472 C2.75945602 11.86704605 2.71054718 12.92337738 2.66015625 14.01171875 C2.61434921 15.09508011 2.56854218 16.17844147 2.52134705 17.29463196 C2.37364789 20.75917072 2.21816425 24.22331086 2.0625 27.6875 C1.96107617 30.03448312 1.86015833 32.38148817 1.75976562 34.72851562 C1.51238411 40.48594449 1.2586083 46.24306509 1 52 C0.67 52 0.34 52 0 52 C0 34.84 0 17.68 0 0 Z " fill="#181616" transform="translate(357,195)"/>
<path d="M0 0 C2.64 1.32 5.28 2.64 8 4 C8 4.66 8 5.32 8 6 C10.64 5.67 13.28 5.34 16 5 C15.34 6.65 14.68 8.3 14 10 C10.4257023 9.67506385 8.44287547 9.36129314 5.625 7.0625 C4 5 4 5 4 3 C3.34 3 2.68 3 2 3 C2 3.66 2 4.32 2 5 C-0.64 5.33 -3.28 5.66 -6 6 C-4.04783565 4.04783565 -2.46800047 3.15173355 0 2 C0 1.34 0 0.68 0 0 Z " fill="#191919" transform="translate(328,185)"/>
<path d="M0 0 C0.99 0.33 1.98 0.66 3 1 C3.86859084 8.32097997 4.46589137 15.64748331 5 23 C6.65 22.67 8.3 22.34 10 22 C8.75 23.5 8.75 23.5 7 25 C5.68 25 4.36 25 3 25 C2.0513636 22.15409081 1.72249388 19.86609603 1.46484375 16.89453125 C1.37783203 15.91162109 1.29082031 14.92871094 1.20117188 13.91601562 C1.0706543 12.37977539 1.0706543 12.37977539 0.9375 10.8125 C0.84662109 9.77673828 0.75574219 8.74097656 0.66210938 7.67382812 C0.43816517 5.11614956 0.21759327 2.55822541 0 0 Z " fill="#0E0D0D" transform="translate(228,173)"/>
<path d="M0 0 C0.66 0.33 1.32 0.66 2 1 C1.01 2.485 1.01 2.485 0 4 C0.66 4 1.32 4 2 4 C1.7525 4.9075 1.505 5.815 1.25 6.75 C1.1675 7.8225 1.085 8.895 1 10 C1.639375 10.556875 2.27875 11.11375 2.9375 11.6875 C5.99862822 15.11967406 5.30351411 18.28982941 5.140625 22.734375 C5.07101563 23.85585937 5.07101563 23.85585937 5 25 C4.67 25 4.34 25 4 25 C3.98582031 24.33613281 3.97164062 23.67226562 3.95703125 22.98828125 C3.64634071 16.97837196 3.64634071 16.97837196 0.5 11.9375 C-0.325 11.298125 -1.15 10.65875 -2 10 C-3 9 -3 9 -3.25 5.5625 C-3.1675 4.386875 -3.085 3.21125 -3 2 C-2.01 1.34 -1.02 0.68 0 0 Z " fill="#1F1F1D" transform="translate(60,179)"/>
<path d="M0 0 C0.99 0.66 1.98 1.32 3 2 C2.01 6.95 1.02 11.9 0 17 C-0.33 17 -0.66 17 -1 17 C-1.185625 15.6078125 -1.185625 15.6078125 -1.375 14.1875 C-1.81533082 10.86074765 -1.81533082 10.86074765 -4 8 C-3.25 4.375 -3.25 4.375 -2 1 C-1.34 0.67 -0.68 0.34 0 0 Z " fill="#0E0E10" transform="translate(140,225)"/>
<path d="M0 0 C3.5625 11.875 3.5625 11.875 2 15 C1.93003986 16.70702735 1.91559846 18.41668003 1.9375 20.125 C1.95103516 21.49011719 1.95103516 21.49011719 1.96484375 22.8828125 C1.97644531 23.58148438 1.98804688 24.28015625 2 25 C1.34 25 0.68 25 0 25 C-1.12798914 21.61603259 -0.94272259 19.47109037 -0.625 15.9375 C-0.53476563 14.87402344 -0.44453125 13.81054688 -0.3515625 12.71484375 C0 10 0 10 1 8 C0.34 8 -0.32 8 -1 8 C-1 7.34 -1 6.68 -1 6 C-1.66 6 -2.32 6 -3 6 C-3.33 5.01 -3.66 4.02 -4 3 C-1.125 0 -1.125 0 0 0 Z " fill="#101012" transform="translate(161,183)"/>
<path d="M0 0 C0.33 0 0.66 0 1 0 C2.23107719 7.72720775 3.2700558 15.1683819 3 23 C2.34 23 1.68 23 1 23 C0.67 23.66 0.34 24.32 0 25 C0 16.75 0 8.5 0 0 Z " fill="#1B1A19" transform="translate(409,214)"/>
<path d="M0 0 C1.64846769 0.44876616 3.29373455 0.90930488 4.9375 1.375 C5.85402344 1.63023437 6.77054688 1.88546875 7.71484375 2.1484375 C10 3 10 3 11 5 C8.03 4.505 8.03 4.505 5 4 C7.97 6.97 10.94 9.94 14 13 C9.40174827 13 7.19709356 10.08810173 4 7 C0 2.48717949 0 2.48717949 0 0 Z " fill="#1A1A18" transform="translate(186,192)"/>
<path d="M0 0 C0.79921875 0.11085937 1.5984375 0.22171875 2.421875 0.3359375 C3.32679688 0.47902344 3.32679688 0.47902344 4.25 0.625 C1.90085508 2.97414492 0.29320554 3.35640357 -2.875 4.25 C-3.78507812 4.51039063 -4.69515625 4.77078125 -5.6328125 5.0390625 C-6.33148438 5.23242188 -7.03015625 5.42578125 -7.75 5.625 C-8.08 4.305 -8.41 2.985 -8.75 1.625 C-5.5750906 -0.2828584 -3.64414789 -0.5359041 0 0 Z " fill="#171617" transform="translate(292.75,253.375)"/>
<path d="M0 0 C0.99 0.33 1.98 0.66 3 1 C2.37037037 6.54074074 2.37037037 6.54074074 0.4375 8.9375 C-1.64281781 11.92230381 -1.20425992 14.45949474 -1 18 C-1.99 17.67 -2.98 17.34 -4 17 C-4.51437444 11.59906836 -2.98334742 9.38179152 0 5 C0.33709062 2.24741188 0.33709062 2.24741188 0 0 Z " fill="#1B1B1B" transform="translate(65,206)"/>
<path d="M0 0 C1.33636459 2.38636534 2.14640535 4.53333378 2.875 7.1875 C4.40233354 12.36346367 6.58931561 17.17863123 9 22 C6.07444285 20.96230238 5.10808964 20.18489018 3.515625 17.4609375 C1.00898663 11.34907234 -0.63634518 6.61798991 0 0 Z " fill="#111110" transform="translate(178,214)"/>
<path d="M0 0 C2.475 0.495 2.475 0.495 5 1 C5.13277344 1.75925781 5.26554688 2.51851562 5.40234375 3.30078125 C5.57894531 4.29464844 5.75554687 5.28851563 5.9375 6.3125 C6.19853516 7.79169922 6.19853516 7.79169922 6.46484375 9.30078125 C6.95746847 12.08189213 6.95746847 12.08189213 8 15 C7.01 15.33 6.02 15.66 5 16 C3.4087311 11.126739 2.78807779 7.19209404 3 2 C2.01 2 1.02 2 0 2 C0 1.34 0 0.68 0 0 Z " fill="#0F0F0F" transform="translate(149,226)"/>
<path d="M0 0 C1.32 0.33 2.64 0.66 4 1 C4 1.99 4 2.98 4 4 C5.65 3.67 7.3 3.34 9 3 C9.33 3.66 9.66 4.32 10 5 C9.01 5.495 9.01 5.495 8 6 C6.86649466 8.01669827 6.86649466 8.01669827 6 10 C2.51668565 6.98112756 1.20842856 4.43090471 0 0 Z " fill="#212020" transform="translate(394,241)"/>
<path d="M0 0 C0.66 0.33 1.32 0.66 2 1 C1.67 1.33 1.34 1.66 1 2 C1.66 2.66 2.32 3.32 3 4 C1.5437455 4.67119549 0.08492133 5.33681807 -1.375 6 C-2.59316406 6.556875 -2.59316406 6.556875 -3.8359375 7.125 C-6 8 -6 8 -8 8 C-8.33 8.99 -8.66 9.98 -9 11 C-9 9.68 -9 8.36 -9 7 C-6.15084083 4.34078478 -3.24005715 2.1600381 0 0 Z " fill="#0E0E0E" transform="translate(293,219)"/>
<path d="M0 0 C0.33 0 0.66 0 1 0 C1.47990402 7.07858428 1.47990402 7.07858428 -0.5625 11 C-3.80595565 13.66129695 -5.91765377 13.39253329 -10 13 C-10 12.67 -10 12.34 -10 12 C-9.05125 11.7525 -8.1025 11.505 -7.125 11.25 C-3.95700157 10.31040284 -3.95700157 10.31040284 -2.625 8.0625 C-1.8549963 5.88067404 -1.8549963 5.88067404 -2 3 C-1.34 3 -0.68 3 0 3 C0 2.01 0 1.02 0 0 Z " fill="#1B1A18" transform="translate(134,245)"/>
<path d="M0 0 C8.91 0 17.82 0 27 0 C27.33 0.99 27.66 1.98 28 3 C27.07058594 2.84660156 26.14117187 2.69320312 25.18359375 2.53515625 C20.16393411 1.81806202 15.12412066 1.64854502 10.0625 1.4375 C9.09248047 1.39431641 8.12246094 1.35113281 7.12304688 1.30664062 C4.74881399 1.20137907 2.37449079 1.09924293 0 1 C0 0.67 0 0.34 0 0 Z " fill="#161615" transform="translate(85,243)"/>
<path d="M0 0 C0.66 0.33 1.32 0.66 2 1 C2.05384521 3.29141286 2.09272087 5.58318188 2.125 7.875 C2.14820313 9.15117187 2.17140625 10.42734375 2.1953125 11.7421875 C2 15 2 15 0 17 C-1.22329074 13.33012779 -0.88021006 10.66032178 -0.5625 6.8125 C-0.46066406 5.54019531 -0.35882813 4.26789063 -0.25390625 2.95703125 C-0.17011719 1.98121094 -0.08632813 1.00539062 0 0 Z " fill="#0B0B0B" transform="translate(437,210)"/>
<path d="M0 0 C0.33 0 0.66 0 1 0 C3 5.625 3 5.625 3 9 C-0.10217621 10.83832664 -2.39408679 11.47446226 -6 11 C-6.66 10.01 -7.32 9.02 -8 8 C-7.030625 8.185625 -6.06125 8.37125 -5.0625 8.5625 C-4.051875 8.706875 -3.04125 8.85125 -2 9 C-1.67 8.67 -1.34 8.34 -1 8 C-1 6.845 -1 5.69 -1 4.5 C-1 1 -1 1 0 0 Z " fill="#100F10" transform="translate(170,248)"/>
<path d="M0 0 C2 3 2 3 2 6 C3.11375 6.268125 4.2275 6.53625 5.375 6.8125 C9 8 9 8 11 11 C10.0925 10.690625 9.185 10.38125 8.25 10.0625 C6.41395969 9.46225605 4.56443809 8.89405251 2.6875 8.4375 C1 8 1 8 0 7 C-0.04092937 4.66702567 -0.04241723 2.33294775 0 0 Z " fill="#0A0A0A" transform="translate(265,245)"/>
<path d="M0 0 C-1.485 1.98 -1.485 1.98 -3 4 C-5.97 3.505 -5.97 3.505 -9 3 C-9.66 4.32 -10.32 5.64 -11 7 C-11 6.34 -11 5.68 -11 5 C-11.66 4.67 -12.32 4.34 -13 4 C-8.38987758 1.04952165 -5.63470383 -0.5497272 0 0 Z " fill="#22201E" transform="translate(273,179)"/>
<path d="M0 0 C1.14926266 0.95421808 2.29430541 1.91352045 3.4375 2.875 C4.07558594 3.40867188 4.71367188 3.94234375 5.37109375 4.4921875 C7 6 7 6 8 8 C5.50935112 8.68707555 3.62113708 9 1 9 C1.20625 8.2575 1.4125 7.515 1.625 6.75 C2.05154009 3.62203932 1.49700675 2.67404259 0 0 Z " fill="#212120" transform="translate(112,228)"/>
<path d="M0 0 C0.99 0.99 1.98 1.98 3 3 C2.34 4.32 1.68 5.64 1 7 C1.99 7.33 2.98 7.66 4 8 C3.01 8.33 2.02 8.66 1 9 C-2 3.25 -2 3.25 -2 1 C-1.34 0.67 -0.68 0.34 0 0 Z " fill="#201E1E" transform="translate(220,244)"/>
<path d="M0 0 C3.17119503 1.09351553 4.00783543 2.0126988 5.8125 4.9375 C7 8 7 8 6 11 C5.7525 10.484375 5.505 9.96875 5.25 9.4375 C3.60418384 6.22815849 1.8023904 3.12414336 0 0 Z M3 10 C5 11 5 11 5 11 Z " fill="#1C1B19" transform="translate(426,179)"/>
<path d="M0 0 C0.99 0 1.98 0 3 0 C2.5359375 1.1446875 2.5359375 1.1446875 2.0625 2.3125 C1.32106407 4.18789677 0.63771783 6.08684652 0 8 C-0.66 8 -1.32 8 -2 8 C-2.125 5.125 -2.125 5.125 -2 2 C-1.34 1.34 -0.68 0.68 0 0 Z " fill="#1E1E1F" transform="translate(137,225)"/>
<path d="M0 0 C0.598125 0.20625 1.19625 0.4125 1.8125 0.625 C1.1525 0.625 0.4925 0.625 -0.1875 0.625 C-0.435 1.264375 -0.6825 1.90375 -0.9375 2.5625 C-2.1875 4.625 -2.1875 4.625 -4.3125 5.375 C-5.240625 5.49875 -5.240625 5.49875 -6.1875 5.625 C-5.875 3.75 -5.875 3.75 -5.1875 1.625 C-2.1875 -0.375 -2.1875 -0.375 0 0 Z " fill="#1F1F1F" transform="translate(412.1875,175.375)"/>
<path d="M0 0 C0 0.66 0 1.32 0 2 C-2.58789062 3.07421875 -2.58789062 3.07421875 -5.17578125 4.1484375 C-7.26533932 5.06806692 -7.26533932 5.06806692 -10 7 C-7.6551217 1.76911763 -5.98347266 -0.48514643 0 0 Z " fill="#11100D" transform="translate(148,169)"/>
<path d="M0 0 C1.485 0.99 1.485 0.99 3 2 C3.4375 8.125 3.4375 8.125 2 11 C1.01 10.67 0.02 10.34 -1 10 C-0.34 10 0.32 10 1 10 C0.7525 9.13375 0.7525 9.13375 0.5 8.25 C-0.11442825 5.48507289 0 2.81970114 0 0 Z " fill="#151414" transform="translate(330,202)"/>
<path d="M0 0 C0.33 0 0.66 0 1 0 C1.09765625 6.15234375 1.09765625 6.15234375 1 8 C0 9 0 9 -3.0625 9.0625 C-4.031875 9.041875 -5.00125 9.02125 -6 9 C-3 7 -3 7 -1 7 C-0.67 4.69 -0.34 2.38 0 0 Z " fill="#151511" transform="translate(128,200)"/>
<path d="M0 0 C3.77545388 1.09068668 6.47043472 1.9083091 9 5 C6.69 5 4.38 5 2 5 C1.34 3.35 0.68 1.7 0 0 Z " fill="#1C1C1C" transform="translate(87,182)"/>
<path d="M0 0 C0 0.33 0 0.66 0 1 C-4.95 2.485 -4.95 2.485 -10 4 C-10 3.34 -10 2.68 -10 2 C-10.66 1.67 -11.32 1.34 -12 1 C-8.0186217 -0.3271261 -4.14954773 -0.06915913 0 0 Z " fill="#1F1F1E" transform="translate(326,178)"/>
<path d="M0 0 C-1.485 1.98 -1.485 1.98 -3 4 C-4.65 3.67 -6.3 3.34 -8 3 C-8 2.34 -8 1.68 -8 1 C-5.29120665 -0.35439668 -2.99066732 -0.06501451 0 0 Z " fill="#0D0D0B" transform="translate(316,177)"/>
<path d="M0 0 C0.33 0 0.66 0 1 0 C1.1875 3.375 1.1875 3.375 1 7 C0.01 7.66 -0.98 8.32 -2 9 C-2.25 3.375 -2.25 3.375 0 0 Z " fill="#0A0909" transform="translate(138,242)"/>
<path d="M0 0 C0.33 0 0.66 0 1 0 C1.33 2.64 1.66 5.28 2 8 C1.01 7.67 0.02 7.34 -1 7 C-1.04254356 5.00045254 -1.04080783 2.99958364 -1 1 C-0.67 0.67 -0.34 0.34 0 0 Z " fill="#030203" transform="translate(62,216)"/>
<path d="M0 0 C1.65 1.65 3.3 3.3 5 5 C2.625 5.1875 2.625 5.1875 0 5 C-0.66 4.01 -1.32 3.02 -2 2 C-1.34 1.34 -0.68 0.68 0 0 Z " fill="#181817" transform="translate(254,202)"/>
<path d="M0 0 C2 1 2 1 2 1 Z " fill="#000000" transform="translate(233,194)"/>
<path d="" fill="#000000" transform="translate(0,0)"/>
<path d="" fill="#000000" transform="translate(0,0)"/>
<path d="" fill="#000000" transform="translate(0,0)"/>
</svg>
